PathFileType	4	(X/Y/Z)	s06c0303.trc
DataRate	CameraRate	NumFrames	NumMarkers	Units	OrigDataRate	OrigDataStartFrame	OrigNumFrames
200	200	4	48	mm	200	250	2000
Frame#	Time	racr			lacr			c7			jug			rlel			rdr			llel			ldr			s2			lic			ric			lasi			rasi			rpsi			lpsi			rgt			lgt			rth1			rth2			rth3			rth4			rlfc			rmfc			rsh1			rsh2			rsh3			rsh4			rlmal			rcal			rtoe			rmt5			lth1			lth2			lth4			lth3			llfc			lmfc			llmal			lcal			lmt5			lsh1			lsh2			lsh3			lsh4			ltoe			SBIKE			LBIKE			RBIKE			
		X1	Y1	Z1	X2	Y2	Z2	X3	Y3	Z3	X4	Y4	Z4	X5	Y5	Z5	X6	Y6	Z6	X7	Y7	Z7	X8	Y8	Z8	X9	Y9	Z9	X10	Y10	Z10	X11	Y11	Z11	X12	Y12	Z12	X13	Y13	Z13	X14	Y14	Z14	X15	Y15	Z15	X16	Y16	Z16	X17	Y17	Z17	X18	Y18	Z18	X19	Y19	Z19	X20	Y20	Z20	X21	Y21	Z21	X22	Y22	Z22	X23	Y23	Z23	X24	Y24	Z24	X25	Y25	Z25	X26	Y26	Z26	X27	Y27	Z27	X28	Y28	Z28	X29	Y29	Z29	X30	Y30	Z30	X31	Y31	Z31	X32	Y32	Z32	X33	Y33	Z33	X34	Y34	Z34	X35	Y35	Z35	X36	Y36	Z36	X37	Y37	Z37	X38	Y38	Z38	X39	Y39	Z39	X40	Y40	Z40	X41	Y41	Z41	X42	Y42	Z42	X43	Y43	Z43	X44	Y44	Z44	X45	Y45	Z45	X46	Y46	Z46	X47	Y47	Z47	X48	Y48	Z48	
250	1.2500	489.688961	1343.030058	-57.967903	516.075397	1335.438002	-369.450263	480.637562	1423.727953	-212.364941	503.222065	1270.338797	-207.745615	510.139301	1083.493569	34.804214	703.207853	931.045101	-42.646535	508.275189	1068.897565	-467.602883	703.612521	919.807309	-408.820548	-24.942191	1160.344869	-244.712959	161.179053	1095.383502	-390.627370	125.708755	1123.794996	-65.505308	166.784091	1031.548110	-360.047823	149.463019	1067.458562	-99.306600	9.419469	1195.474391	-212.898750	15.203769	1189.475555	-274.456687	90.532162	1070.265424	-31.935828	103.582458	1018.020788	-425.020781	183.565364	977.389431	-26.065777	261.543679	931.604833	-32.411088	304.871774	855.802292	-37.902140	283.653090	957.116156	-50.029382	354.024695	762.182162	-55.025198	344.320459	734.908394	-163.066681	323.183301	643.523616	-25.556529	320.616973	556.938988	-42.808151	277.652252	481.288637	-42.829411	340.332656	554.837287	-76.907781	245.215718	400.805792	-46.356479	185.590791	357.211703	-92.783476	460.426291	394.799699	-96.151256	370.531383	355.220020	-23.760321	136.774127	897.460714	-434.089374	197.201514	835.535249	-422.711691	227.782259	853.607424	-412.047000	218.266174	749.152665	-412.608619	235.536016	642.771863	-383.819786	226.081497	634.461093	-267.186243	-38.177612	388.427332	-374.583709	-119.121126	381.853691	-327.651176	59.151004	297.341815	-397.723398	165.128545	563.339731	-406.623687	114.732605	496.538539	-382.144773	36.823818	454.093646	-386.365925	130.074006	485.840292	-347.626628	144.138152	283.232921	-339.449665	-154.870894	852.380191	-216.893586	-50.745755	79.635122	-411.574425	-51.248918	79.703398	-14.266638	
251	1.2550	492.101469	1343.312194	-57.268626	519.453777	1334.667143	-368.524953	484.102302	1422.886567	-212.322343	506.012349	1269.264105	-207.225162	511.137865	1083.402935	34.798207	703.908360	931.049495	-42.741471	510.345089	1068.995046	-467.899438	704.584079	919.319314	-408.987057	-22.869290	1163.345513	-245.038560	162.786682	1097.139472	-391.020838	127.407311	1125.515901	-66.015815	167.300894	1033.142940	-359.556226	150.863881	1069.089555	-99.874914	11.826135	1198.130085	-213.411865	17.328130	1192.304690	-274.769534	92.274421	1072.325343	-32.507075	105.032400	1021.117378	-426.099370	183.782433	977.933842	-26.460353	260.922111	930.766188	-32.717105	302.782100	854.162127	-38.474532	283.576898	955.820614	-50.283564	350.866243	760.064429	-55.214643	340.931276	732.390363	-163.366759	320.995032	641.061671	-25.629290	318.971587	554.474858	-42.886081	276.647370	478.533593	-42.903070	338.696412	552.559445	-77.022721	244.443244	397.765110	-46.442077	185.165484	353.354362	-92.733884	459.604940	394.540349	-96.016494	370.173128	353.668356	-23.646095	137.397871	900.545941	-434.473077	198.007421	838.648660	-423.501883	228.553629	856.657685	-412.828570	219.238919	752.276236	-413.693255	236.795350	645.895092	-384.015988	227.167499	638.162238	-267.404148	-36.013436	390.880199	-374.420722	-117.306518	385.376638	-327.648221	59.779154	298.218114	-397.585588	166.737100	566.355535	-406.605117	116.393749	499.429290	-382.074782	38.552637	456.900016	-386.431977	131.725590	488.839982	-347.563898	144.495616	282.743232	-339.421636	-154.681453	852.311365	-217.176050	-50.706070	79.655265	-411.577479	-51.216959	79.901282	-14.115574	
252	1.2600	494.740089	1343.498549	-56.805185	523.039364	1333.602111	-366.939912	487.659364	1421.845836	-212.153635	509.033995	1268.130489	-206.827588	512.003040	1082.917565	34.796364	704.633365	930.716774	-42.711703	512.889304	1068.935743	-468.023598	705.672207	918.637185	-408.885825	-20.787736	1166.338454	-245.415927	164.360511	1098.948544	-391.338287	129.107631	1127.111025	-66.594714	168.277232	1035.056022	-359.835053	151.907496	1070.452883	-100.515436	14.461306	1201.433861	-214.151774	19.651270	1195.130090	-275.216586	94.169697	1074.644210	-33.023893	106.487401	1024.359841	-427.108507	184.264091	978.768642	-26.907304	260.449963	930.222292	-33.028383	300.968901	852.774069	-38.448835	283.534330	954.782627	-50.690830	347.722812	758.186954	-55.395255	337.537539	730.322254	-163.631845	319.266263	638.826732	-25.871224	317.485276	552.243020	-42.882494	275.600163	476.021655	-42.872031	337.197659	550.401251	-77.078738	243.780838	394.857602	-46.338345	184.844057	349.848332	-92.599771	458.919051	394.095652	-95.778674	369.968997	352.104242	-23.509781	138.150688	903.893863	-434.844133	198.950460	842.063241	-424.321327	229.494289	860.190416	-413.680997	220.347417	755.896192	-414.931110	238.317580	648.969386	-384.305546	228.826494	641.864971	-267.653603	-33.591517	393.377424	-374.271749	-115.301747	389.103452	-327.482913	60.344518	299.062072	-397.371014	168.565213	569.457496	-406.500556	118.284279	502.541696	-381.991506	40.515391	459.836882	-386.371074	133.612941	491.831897	-347.551043	144.906672	282.254756	-339.454428	-154.566523	852.343369	-217.243465	-50.635216	79.694221	-411.613067	-51.138065	79.714600	-14.271969	
253	1.2650	497.620131	1343.283624	-56.383304	526.807029	1332.605410	-365.990490	491.393122	1420.893891	-211.993307	512.183093	1266.938319	-206.539786	512.655888	1082.016079	34.935852	705.210751	930.277457	-42.722890	515.618552	1068.476670	-467.969475	706.796972	918.048273	-408.801826	-18.168806	1169.296026	-246.789941	165.872004	1100.977089	-391.681929	131.080277	1128.678064	-67.111277	169.093454	1037.179156	-360.104412	153.162264	1071.737552	-101.034145	16.979503	1204.256521	-214.579163	21.970496	1198.057658	-275.524863	96.205518	1077.156494	-33.623314	107.902539	1027.654526	-427.980882	184.538998	979.824952	-27.390879	260.121812	929.880607	-33.333116	299.097180	851.659611	-39.355506	283.681081	953.983705	-51.137193	344.660737	756.518694	-55.684878	334.280629	728.408263	-163.959711	317.473408	636.654956	-25.848366	316.097940	550.068833	-42.875405	274.625600	473.631712	-42.700075	335.693853	548.285693	-77.156584	243.287351	392.176491	-46.179096	184.889890	346.141408	-92.617144	458.318331	393.509008	-95.646211	369.819863	350.530623	-23.330488	139.167385	907.455502	-435.199128	200.203611	845.790865	-425.217247	230.771221	863.939354	-414.601027	221.859147	759.610646	-416.135730	240.057960	652.344307	-384.617519	230.441097	646.120244	-267.847229	-31.000894	395.938057	-374.114180	-113.148192	393.082731	-327.406972	61.021381	300.011852	-397.031303	170.699187	572.642930	-406.543860	120.434842	505.735346	-381.999407	42.708332	462.904662	-386.383720	135.719445	494.889755	-347.440592	145.325882	281.800961	-339.438502	-154.556085	852.356058	-217.180880	-50.586304	79.726897	-411.564803	-51.037790	79.586778	-14.266329	
